<svg width="24" height="24" viewBox="0 0 24 24" fill="none" xmlns="http://www.w3.org/2000/svg">
<path d="M23.5585 1.37939H20.5221C20.2782 1.37939 20.0806 1.58173 20.0806 1.83136V3.13354H24V1.83131C24 1.58173 23.8023 1.37939 23.5585 1.37939Z" fill="#A4A4A4"/>
<path d="M18.0472 3.53857H15.0108C14.767 3.53857 14.5693 3.74091 14.5693 3.99053V6.25777H18.4888V3.99053C18.4887 3.74091 18.2911 3.53857 18.0472 3.53857Z" fill="#A4A4A4"/>
<path d="M20.0806 4.7627H24V20.6107H20.0806V4.7627Z" fill="#A4A4A4"/>
<path d="M14.5693 7.88721H18.4888V23.9596H14.5693V7.88721Z" fill="#A4A4A4"/>
<path d="M20.0806 22.2402H24V23.9593H20.0806V22.2402Z" fill="#A4A4A4"/>
<path d="M4.56718 4.53955H0.441484C0.19766 4.53955 0 4.74189 0 4.99151V6.69609H5.00866V4.99151C5.00866 4.74189 4.811 4.53955 4.56718 4.53955Z" fill="#A4A4A4"/>
<path d="M0 8.32568H5.00866V23.9594H0V8.32568Z" fill="#A4A4A4"/>
<path d="M6.60059 20.1885H12.9775V23.9594H6.60059V20.1885Z" fill="#A4A4A4"/>
<path d="M6.60059 5.46045H12.9775V18.5589H6.60059V5.46045Z" fill="#A4A4A4"/>
<path d="M12.536 0.0405273H7.04207C6.79825 0.0405273 6.60059 0.242864 6.60059 0.492488V3.83114H12.9775V0.492442C12.9775 0.242864 12.7799 0.0405273 12.536 0.0405273Z" fill="#A4A4A4"/>
</svg>
