<svg width="27" height="27" viewBox="0 0 27 27" fill="none" xmlns="http://www.w3.org/2000/svg">
<g clip-path="url(#clip0)">
<path d="M17.5707 6.06606C16.0465 2.9537 12.858 0.895996 9.28144 0.895996C4.16385 0.895996 0.000406385 5.03581 0.000406385 10.1243C0.000406385 11.5072 0.297294 12.8326 0.883265 14.0684L0.0157517 18.4065C-0.0946715 18.9587 0.392477 19.4468 0.944804 19.3376L5.33637 18.4693C5.92766 18.7498 6.53937 18.9631 7.16789 19.1101C5.75902 12.4372 10.817 6.17353 17.5707 6.06606Z" fill="#A4A4A4"/>
<path d="M26.1167 20.8181C26.2683 20.4985 26.4 20.1728 26.5128 19.8418H26.4838C28.4586 14.0455 24.3057 7.95356 18.1748 7.65694C18.1747 7.65662 18.1747 7.65631 18.1746 7.65599C12.8994 7.41289 8.5166 11.6366 8.5166 16.874C8.5166 21.9582 12.6488 26.0947 17.7314 26.1021C19.11 26.1002 20.4313 25.8035 21.6636 25.219C26.4732 26.1699 26.0981 26.1023 26.2086 26.1023C26.7084 26.1023 27.0818 25.6442 26.9842 25.1562L26.1167 20.8181Z" fill="#A4A4A4"/>
</g>
<defs>
<clipPath id="clip0">
<rect width="27" height="27" fill="white"/>
</clipPath>
</defs>
</svg>
